<svg xmlns="http://www.w3.org/2000/svg" viewBox="0 0 512 512" role="img" aria-label="My Command Center icon">
  <rect x="12" y="12" width="488" height="488" rx="108" fill="#0B1320" stroke="#3A5568" stroke-width="12"/>
  <g fill="none" stroke="#EAF2F2" stroke-linecap="round" stroke-linejoin="round">
    <circle cx="256" cy="202" r="96" stroke-width="16"/>
    <circle cx="256" cy="202" r="24" stroke-width="14"/>
    <path d="M256 106V56M256 348v-50M160 202h-50M402 202h-50M188 134l-36-36M360 306l-36-36M324 134l36-36M152 306l36-36" stroke-width="18"/>
    <path d="M256 178v102" stroke-width="16"/>
  </g>
  <path d="M92 284 256 218l164 66-55 86-109 54-109-54Z" fill="#EAF2F2" stroke="#0B1320" stroke-width="14" stroke-linejoin="round"/>
  <path d="M256 230v176l102-51 42-64Z" fill="#AEEBE0" opacity=".72"/>
  <g fill="none" stroke="#17B3A6" stroke-linecap="round" stroke-width="13">
    <path d="M86 412c48-24 86-24 134 0s86 24 134 0 86-24 134 0"/>
    <path d="M102 450c42-20 76-20 118 0s76 20 118 0 76-20 118 0" opacity=".72"/>
  </g>
</svg>
